<svg width="332" height="52" viewBox="0 0 332 52" fill="none" xmlns="http://www.w3.org/2000/svg">
<g clip-path="url(#clip0_5_54)">
<path d="M50.5007 30.6435C53.334 16.8421 44.4426 3.35711 30.6412 0.523854C16.8398 -2.3094 3.3548 6.58202 0.521541 20.3834C-2.31171 34.1848 6.5797 47.6698 20.3811 50.503C34.1825 53.3363 47.6675 44.4449 50.5007 30.6435Z" fill="#102D69"/>
<path d="M44.02 22.61L45.67 22.46H45.69C45.75 22.84 45.79 23.23 45.83 23.61C45.87 23.99 45.89 24.38 45.91 24.77H45.89L44.24 24.92L44.26 25.63L48.26 25.25L48.23 24.54L46.55 24.7H46.54C46.52 24.31 46.5 23.93 46.46 23.54C46.42 23.16 46.38 22.77 46.32 22.39H46.33L48.02 22.23L47.91 21.53L43.91 21.91L44.02 22.61Z" fill="white"/>
<path d="M14.91 10.08L14.04 8.64999L14.46 8.38999L15.65 8.84999C16.25 9.08999 16.84 9.16999 17.26 8.69999L16.94 8.16999C16.74 8.38999 16.42 8.37999 15.96 8.21999L14.66 7.74999L15.09 5.29999L14.37 5.70999L14.06 7.85999L13.71 8.07999L12.83 6.63999L12.25 7.04999L14.34 10.47L14.91 10.08Z" fill="white"/>
<path d="M23.67 3.86001L23.64 3.47001C23.71 3.46001 23.78 3.46001 23.84 3.45001C24.24 3.42001 24.64 3.40001 25.04 3.39001L25.3 6.78001L26.01 6.73001L25.75 3.40001L25.7 2.76001C25.32 2.76001 24.93 2.76001 24.55 2.78001L23.03 2.90001C23 2.90001 22.96 2.91001 22.93 2.91001L22.98 3.54001L22.99 3.70001C23.17 6.12001 22.81 6.41001 22.4 6.44001C22.31 6.45001 22.22 6.44001 22.17 6.42001L22.15 7.01001C22.26 7.03001 22.49 7.05001 22.65 7.04001C23.43 6.98001 23.86 6.43001 23.67 3.86001Z" fill="white"/>
<path d="M19.75 7.78002C20.93 7.39002 21.48 6.21002 21.12 5.13002C20.76 4.03002 19.65 3.40002 18.46 3.79002C17.28 4.18002 16.73 5.36002 17.09 6.44002C17.45 7.54002 18.57 8.17002 19.75 7.78002ZM18.66 4.42002C19.43 4.17002 20.17 4.62002 20.42 5.37002C20.54 5.75002 20.52 6.14002 20.37 6.46002C20.22 6.78002 19.95 7.04002 19.56 7.17002C18.79 7.42002 18.05 6.97002 17.8 6.22002C17.6 5.59002 17.81 4.96002 18.32 4.62002C18.43 4.54002 18.53 4.46002 18.66 4.42002Z" fill="white"/>
<path d="M41.02 11.53C41.79 10.69 41.78 9.39003 40.86 8.55003C40.3 8.05003 39.63 7.88003 39 8.02003L39.16 8.73003C39.59 8.62003 40.05 8.71003 40.42 9.04003C40.93 9.51003 40.99 10.2 40.65 10.76C40.35 10.45 40.04 10.15 39.72 9.87003C39.59 9.75003 39.45 9.63003 39.32 9.51003L38.91 9.99003C39.04 10.1 39.17 10.22 39.3 10.33C39.62 10.62 39.93 10.92 40.23 11.23C39.7 11.62 38.99 11.63 38.47 11.16C38.09 10.82 37.96 10.35 38.05 9.90003L37.34 9.80003C37.25 10.45 37.47 11.14 38.04 11.65C38.96 12.49 40.24 12.38 41.02 11.53Z" fill="white"/>
<path d="M30.9 22.16C31.78 21.14 32.15 19.9 32.15 18.72C32.15 17.77 31.89 15.87 30.22 14.56C29.07 13.67 28.06 13.25 25.63 13.25H24.4C24.36 13.25 24.33 13.25 24.28 13.25H19.22V37.16H33.67V32.57C33.67 28.18 32.25 25.23 28.58 23.93C29.73 23.45 30.44 22.72 30.9 22.16ZM28.03 21.7C27.37 22.52 26.3 23.28 24.78 23.28C24.77 23.28 24.76 23.28 24.75 23.28V24.47C28.81 24.47 30.4 27.17 30.4 32.11V35.83H27.79V27.85H24.78V35.84H22.48V14.44H24.85C25.74 14.44 27.08 14.64 28.03 15.82C28.52 16.42 28.83 17.21 28.93 18.01H24.78V19.19H28.96C28.93 19.95 28.77 20.8 28.03 21.7Z" fill="white"/>
<path d="M34.5099 7.74002C34.9099 7.94002 35.3999 7.78002 35.5999 7.38002C35.7999 6.98002 35.6399 6.49002 35.2399 6.29002C34.8399 6.09002 34.3499 6.25002 34.1499 6.65002C33.9499 7.05002 34.1099 7.54002 34.5099 7.74002Z" fill="white"/>
<path d="M28.2 6.03004C28.52 6.07004 28.83 6.12004 29.15 6.18004C29.46 6.24004 29.78 6.31004 30.09 6.38004L30.3 7.40004L31.05 7.61004L30.05 3.21004L29.4 3.10004L26.87 6.83004L27.63 6.90004L28.2 6.03004ZM29.55 4.00004L29.94 5.71004C29.71 5.66004 29.49 5.61004 29.26 5.57004C29.03 5.53004 28.81 5.49004 28.58 5.45004L29.55 4.00004Z" fill="white"/>
<path d="M44.26 16.32C43.18 16.72 42.6 17.86 43.03 19.03C43.46 20.2 44.67 20.69 45.74 20.29C46.82 19.89 47.4 18.75 46.97 17.58C46.53 16.41 45.33 15.92 44.26 16.32ZM46.35 17.8C46.63 18.55 46.22 19.32 45.48 19.59C45.41 19.62 45.34 19.61 45.28 19.63C44.6 19.79 43.91 19.5 43.66 18.81C43.48 18.34 43.58 17.86 43.86 17.51C43.9 17.45 43.96 17.4 44.01 17.35C44.02 17.34 44.03 17.32 44.04 17.31C44.07 17.28 44.11 17.26 44.15 17.23C44.19 17.2 44.23 17.17 44.27 17.14C44.27 17.14 44.27 17.14 44.28 17.14C44.36 17.09 44.44 17.05 44.53 17.02C44.9 16.88 45.29 16.89 45.62 17.02C45.94 17.16 46.21 17.42 46.35 17.8Z" fill="white"/>
<path d="M40.6 14.41L42 13.49L42.27 13.9L41.85 15.1C41.63 15.71 41.57 16.3 42.05 16.71L42.57 16.37C42.35 16.18 42.35 15.86 42.49 15.4L42.91 14.08L45.37 14.43L44.93 13.72L42.77 13.48L42.54 13.14L43.95 12.21L43.52 11.64L40.17 13.84L40.6 14.41Z" fill="white"/>
<path d="M6.18997 18.61C6.63997 18.65 7.02997 18.33 7.07997 17.88C7.11997 17.43 6.79997 17.04 6.34997 16.99C5.89997 16.95 5.50997 17.27 5.45997 17.72C5.40997 18.17 5.73997 18.56 6.18997 18.61Z" fill="white"/>
<path d="M32.32 42.96L31.09 46.46L30.19 43.65L29.5 43.81L30.74 47.65L31.41 47.48L32.62 44.01L33.52 46.8L34.17 46.54L32.94 42.71L32.32 42.96Z" fill="white"/>
<path d="M25.52 45.47C25.07 45.47 24.71 45.83 24.71 46.28C24.71 46.73 25.07 47.09 25.52 47.09C25.97 47.09 26.33 46.73 26.33 46.28C26.33 45.84 25.97 45.47 25.52 45.47Z" fill="white"/>
<path d="M36.22 40.88L37.1 42.31L36.68 42.57L35.49 42.12C34.89 41.88 34.3 41.81 33.88 42.28L34.21 42.81C34.41 42.59 34.73 42.6 35.19 42.76L36.5 43.22L36.09 45.67L36.81 45.25L37.11 43.09L37.46 42.87L38.35 44.3L38.93 43.89L36.82 40.48L36.22 40.88Z" fill="white"/>
<path d="M40.05 37.32L40.71 40.97L38.54 38.97L38.03 39.45L41 42.18L41.5 41.69L40.84 38.08L43 40.06L43.44 39.52L40.47 36.79L40.05 37.32Z" fill="white"/>
<path d="M46.35 27.06C45.21 26.86 44.13 27.55 43.92 28.78C43.7 30.01 44.49 31.04 45.62 31.24C46.76 31.44 47.84 30.75 48.05 29.52C48.26 28.29 47.47 27.25 46.35 27.06ZM47.4 29.39C47.37 29.59 47.29 29.77 47.19 29.92C46.89 30.37 46.32 30.6 45.74 30.5C45.05 30.38 44.56 29.85 44.54 29.19C44.54 29.1 44.54 29 44.56 28.9C44.59 28.7 44.67 28.52 44.77 28.37C45.07 27.92 45.64 27.69 46.22 27.79C47.01 27.93 47.54 28.6 47.4 29.39Z" fill="white"/>
<path d="M18.5301 44.12C18.3701 44.66 18.6101 45.01 19.0201 45.3C18.6901 45.37 18.3501 45.54 18.2101 46.01C18.1301 46.28 18.1601 46.52 18.2801 46.74C18.4401 47.03 18.7501 47.28 19.1901 47.41L20.6701 47.79L21.7901 43.92L20.2701 43.48C19.4201 43.22 18.7401 43.42 18.5301 44.12ZM19.4701 46.8C19.0301 46.67 18.8401 46.41 18.9301 46.11C18.9501 46.04 18.9801 45.98 19.0101 45.93C19.1201 45.78 19.2901 45.72 19.5101 45.73C19.6101 45.73 19.7101 45.75 19.8201 45.78L20.4801 45.97L20.1801 47L19.4701 46.8ZM19.8401 45.16C19.3001 45 19.1001 44.73 19.1901 44.4C19.2701 44.13 19.4801 44 19.7701 44.02C19.8701 44.02 19.9801 44.04 20.0901 44.08L20.9501 44.33L20.6401 45.4L19.8401 45.16Z" fill="white"/>
<path d="M42.98 32.28L44.4 33.09C44.88 33.36 45.45 33.67 45.92 33.93L45.91 33.94C45.4 33.82 42.44 33.46 42.44 33.46L42.18 34C42.18 34 44.22 36.24 44.61 36.58L44.6 36.6C44.11 36.35 43.53 36.1 43.05 35.89L41.53 35.23L41.13 35.87L44.89 37.44L45.4 36.57C45.4 36.57 43.51 34.51 43.16 34.22L43.17 34.2C43.62 34.3 46.37 34.6 46.37 34.6L46.76 33.65L43.24 31.58L42.98 32.28Z" fill="white"/>
<path d="M7.29001 29.82L6.28001 29.57C6.21001 29.26 6.16001 28.94 6.11001 28.63C6.05001 28.32 6.01001 28 5.98001 27.68L6.86001 27.13L6.81001 26.35L3.01001 28.78L3.11001 29.43L7.48001 30.55L7.29001 29.82ZM5.38001 28.05C5.41001 28.28 5.44001 28.51 5.48001 28.74C5.52001 28.97 5.56001 29.19 5.60001 29.42L3.90001 28.99L5.38001 28.05Z" fill="white"/>
<path d="M14.69 42.37C14.28 43.07 14.58 43.77 15.36 44.24L15.91 44.57L15.17 45.83L15.78 46.19L17.84 42.7L16.68 42C15.87 41.53 15.1 41.67 14.69 42.37ZM16.22 44.03L15.69 43.72C15.23 43.45 15.08 43.1 15.29 42.74C15.41 42.54 15.56 42.43 15.74 42.4C15.92 42.37 16.13 42.43 16.36 42.56L16.9 42.88L16.22 44.03Z" fill="white"/>
<path d="M9.76994 15.43C10.7299 13.93 11.8999 12.58 13.2399 11.41L12.7399 10.97L10.1599 8.73999C9.98994 8.89999 9.80994 9.05999 9.64994 9.22999L12.2299 11.45C11.8399 11.82 11.4699 12.2 11.1099 12.6L8.54994 10.39C8.38994 10.57 8.23994 10.75 8.07994 10.93L10.6399 13.14C10.2999 13.54 9.97994 13.96 9.67994 14.4L7.09994 12.18C6.95994 12.37 6.82994 12.57 6.68994 12.76L9.26994 14.99L9.76994 15.43Z" fill="white"/>
<path d="M4.02 25.02C4.71 25.08 5.1 24.66 5.24 24.33L5.95 24.94C6.14 25.11 6.27 25.43 6.19 25.65L6.8 25.64C6.95 25.31 6.87 24.83 6.39 24.43L5.44 23.63L5.48 23.13L6.93 23.26L7.03 22.54L3.02 22.22C2.98 22.44 2.89 23.33 2.88 23.45C2.78 24.56 3.32 24.97 4.02 25.02ZM3.61 22.99L4.81 23.09L4.77 23.55C4.74 23.96 4.5 24.31 4.08 24.27C3.76 24.24 3.51 24.05 3.55 23.47C3.57 23.34 3.58 23.18 3.61 22.99Z" fill="white"/>
<path d="M10.0699 36.1C9.05995 34.63 8.27995 33.03 7.72995 31.33L7.12995 31.62L4.06995 33.12C4.14995 33.34 4.22995 33.56 4.31995 33.79L7.36995 32.28C7.55995 32.78 7.75995 33.28 7.98995 33.76L4.94995 35.25C5.04995 35.47 5.15995 35.68 5.25995 35.89L8.29995 34.4C8.53995 34.87 8.79995 35.33 9.07995 35.78L6.03995 37.29C6.15995 37.49 6.28995 37.69 6.41995 37.89L9.47995 36.39L10.0699 36.1Z" fill="white"/>
<path d="M14.1114 40.4192L11.7822 43.7325L12.3631 44.1409L14.6922 40.8276L14.1114 40.4192Z" fill="white"/>
<path d="M11.82 38.15C11.3 37.59 10.61 37.38 9.97002 37.47L10.07 38.18C10.52 38.09 10.99 38.21 11.33 38.59C11.88 39.18 11.79 40.05 11.21 40.58C10.62 41.12 9.77002 41.15 9.22002 40.56C8.88002 40.2 8.79002 39.73 8.90002 39.3L8.19002 39.15C8.06002 39.77 8.23002 40.45 8.73002 40.99C9.58002 41.9 10.88 41.9 11.71 41.13C12.56 40.34 12.66 39.07 11.82 38.15Z" fill="white"/>
</g>
<path d="M80.9378 17.7073V39H75.1892V17.7073H68.0412V12.6016H88.0858V17.7073H80.9378ZM90.8496 39V34.4238H94.2534V17.1778H90.8496V12.6016H103.406V17.1778H100.002V34.4238H103.406V39H90.8496ZM127.938 21.6784H127.824L125.895 25.5361L120.752 34.8776L115.722 25.5739L113.717 21.4137H113.604V39H108.195V12.6016H114.284L120.752 24.9688H120.827L127.219 12.6016H133.346V39H127.938V21.6784ZM139.183 39V12.6016H157.147V17.7073H144.931V23.1156H155.408V28.1835H144.931V33.8943H157.147V39H139.183ZM173.161 17.7073V39H167.412V17.7073H160.265V12.6016H180.309V17.7073H173.161ZM189.99 39H184.242V12.6016H196.76C197.971 12.6016 199.067 12.8033 200.051 13.2067C201.034 13.6101 201.866 14.19 202.547 14.9464C203.253 15.6776 203.795 16.5601 204.173 17.5938C204.551 18.6276 204.74 19.7748 204.74 21.0355C204.74 22.8256 204.337 24.3888 203.53 25.7252C202.748 27.0615 201.551 28.0322 199.937 28.6373L205.119 39H198.727L194.113 29.3181H189.99V39ZM196.042 24.4771C196.899 24.4771 197.567 24.2628 198.046 23.8342C198.55 23.3803 198.803 22.7248 198.803 21.8675V20.2034C198.803 19.3462 198.55 18.7032 198.046 18.2746C197.567 17.8208 196.899 17.5938 196.042 17.5938H189.99V24.4771H196.042ZM225.989 39L224.098 32.7219H215.286L213.395 39H207.57L216.269 12.6016H223.379L231.964 39H225.989ZM219.748 17.8208H219.559L216.647 27.8431H222.698L219.748 17.8208ZM245.137 39.4538C243.347 39.4538 241.733 39.1765 240.296 38.6218C238.859 38.0419 237.636 37.1972 236.627 36.0879C235.619 34.9533 234.837 33.5539 234.283 31.8898C233.728 30.2005 233.45 28.2339 233.45 25.9899C233.45 23.7711 233.728 21.8045 234.283 20.09C234.837 18.3502 235.619 16.9005 236.627 15.7407C237.636 14.5556 238.859 13.6606 240.296 13.0554C241.733 12.4503 243.347 12.1478 245.137 12.1478C247.583 12.1478 249.6 12.652 251.188 13.6606C252.777 14.6439 254.05 16.2071 255.008 18.3502L250.053 20.922C249.7 19.8126 249.146 18.9302 248.389 18.2746C247.658 17.5938 246.574 17.2535 245.137 17.2535C243.448 17.2535 242.086 17.8082 241.052 18.9175C240.044 20.0017 239.539 21.5902 239.539 23.6829V27.9187C239.539 30.0114 240.044 31.6125 241.052 32.7219C242.086 33.806 243.448 34.3481 245.137 34.3481C246.549 34.3481 247.671 33.9699 248.503 33.2135C249.36 32.4319 249.99 31.499 250.394 30.4148L255.084 33.1379C254.1 35.155 252.802 36.7182 251.188 37.8276C249.6 38.9118 247.583 39.4538 245.137 39.4538ZM268.297 27.5027L264.855 31.6629V39H259.106V12.6016H264.855V25.1579H265.082L268.826 20.0521L274.764 12.6016H281.269L272.381 23.456L282.063 39H275.293L268.297 27.5027ZM285.44 39V12.6016H303.405V17.7073H291.189V23.1156H301.665V28.1835H291.189V33.8943H303.405V39H285.44ZM314.161 39H308.413V12.6016H320.931C322.141 12.6016 323.238 12.8033 324.222 13.2067C325.205 13.6101 326.037 14.19 326.718 14.9464C327.424 15.6776 327.966 16.5601 328.344 17.5938C328.722 18.6276 328.911 19.7748 328.911 21.0355C328.911 22.8256 328.508 24.3888 327.701 25.7252C326.919 27.0615 325.722 28.0322 324.108 28.6373L329.289 39H322.898L318.284 29.3181H314.161V39ZM320.213 24.4771C321.07 24.4771 321.738 24.2628 322.217 23.8342C322.721 23.3803 322.974 22.7248 322.974 21.8675V20.2034C322.974 19.3462 322.721 18.7032 322.217 18.2746C321.738 17.8208 321.07 17.5938 320.213 17.5938H314.161V24.4771H320.213Z" fill="#102D69"/>
<defs>
<clipPath id="clip0_5_54">
<rect width="51.02" height="51.02" fill="white"/>
</clipPath>
</defs>
</svg>
